{"title":"The Internship 2013 CAM READNFO XViD - JUSTiCE","uid":8736608,"size":1475999511,"categoryP":"video","categoryS":"movies","magnet":"?xt=urn:btih:52c172e41a56b6b6effb96c4be392586ad653bff&amp;dn=The+Internship+2013+CAM+READNFO+XViD+-+JUSTiCE&amp;tr=udp%3A%2F%2Ftracker.openbittorrent.com%3A80&amp;tr=udp%3A%2F%2Fopen.demonii.com%3A1337&amp;tr=udp%3A%2F%2Ftracker.coppersurfer.tk%3A6969&amp;tr=udp%3A%2F%2Fexodus.desync.com%3A6969","seeders":2,"leechers":0,"uploader":"ValidusVyto","files":-1,"time":1374691730,"description":"_______ Visit us at our Semi Public Bittorrent Community ________\n   &lt;a href=&quot;\nhttp://p2pdl.com&quot; rel=&quot;nofollow&quot; target=&quot;_NEW&quot;&gt;\nhttp://p2pdl.com&lt;/a&gt;  _____________________________ &lt;a href=&quot; http://p2pdl.com&quot; rel=&quot;nofollow&quot; target=&quot;_NEW&quot;&gt; http://p2pdl.com&lt;/a&gt;\n\n\nBilly (Vince Vaughn) and Nick (Owen Wilson) are salesmen whose careers have been torpedoed by the digital world. Trying to prove they are not obsolete, they defy the odds by talking their way into a coveted internship at Google, along with a battalion of brilliant college students. But, gaining entrance to this utopia is only half the battle. Now they must compete with a group of the nation's most elite, tech-savvy geniuses to prove that necessity really is the mother of re-invention.\n\n &lt;a href=&quot;\nhttp://www.imdb.com/title/tt2234155/&quot; rel=&quot;nofollow&quot; target=&quot;_NEW&quot;&gt;\nhttp://www.imdb.com/title/tt2234155/&lt;/a&gt;\n\n\nSOURCE: 26k\n\nVideo and audio both cleaned and given justice\nCheck sample and see\n\nVIDEO\nPretty decent cam ...heard it was a VOD that was cammed??either way much better than the last\ncam release ;\nGot some faults but theres not loads you can do to this without making it worse\n\nAUDIO\nWay too powerful for my liking and also had some hiss/noise to it\n\nWORKDONE\n\nMade a script and dropped the video into vdub and first off opted to use a light smoother on it,then\nresized it,tweaked the rgb colours aswell as the sat....small tweak in the brightness and contrast\nThen added some sharpness ...but only small amout +5 due to the Q wasn't there to make it any better without\ncausing more issues\n\nAudio stripped and dropped in adobe and remastered it ...yes its still &quot;tinny&quot; like 99% of cam audios are,however\nthis sounds better too me now\nOnce done,just remuxed to our rip \n\n\nGeneral\nFormat                                   : AVI\nFormat/Info                              : Audio Video Interleave\nFile size                                : 1.37 GiB\nDuration                                 : 1h 55mn\nOverall bit rate                         : 1 709 Kbps\nWriting library                          : VirtualDub build 32842/release\n\nVideo\nCodec ID                                 : XVID\nCodec ID/Hint                            : XviD\nDuration                                 : 1h 55mn\nBit rate                                 : 1 569 Kbps\nWidth                                    : 720 pixels\nHeight                                   : 304 pixels\nDisplay aspect ratio                     : 2.35:1\nFrame rate                               : 29.970 fps\nColor space                              : YUV\nChroma subsampling                       : 4:2:0\nBit depth                                : 8 bits\nScan type                                : Progressive\nCompression mode                         : Lossy\nBits/(Pixel*Frame)                       : 0.239\nStream size                              : 1.26 GiB (92%)\nWriting library                          : XviD 64\n\nAudio\nCodec ID/Hint                            : MP3\nDuration                                 : 1h 55mn\nBit rate mode                            : Constant\nBit rate                                 : 128 Kbps\nChannel(s)                               : 2 channels\nSampling rate                            : 48.0 KHz\nCompression mode                         : Lossy\nStream size                              : 105 MiB (7%)\nAlignment                                : Split accross interleaves\n &lt;a href=&quot;\nhttp://ultraimg.com/images/JtwzK.png&quot; rel=&quot;nofollow&quot; target=&quot;_NEW&quot;&gt;\nhttp://ultraimg.com/images/JtwzK.png&lt;/a&gt; &lt;a href=&quot;\nhttp://ultraimg.com/images/Yz9Ic.png&quot; rel=&quot;nofollow&quot; target=&quot;_NEW&quot;&gt;\nhttp://ultraimg.com/images/Yz9Ic.png&lt;/a&gt; &lt;a href=&quot;\nhttp://ultraimg.com/images/L05Oz.png&quot; rel=&quot;nofollow&quot; target=&quot;_NEW&quot;&gt;\nhttp://ultraimg.com/images/L05Oz.png&lt;/a&gt; &lt;a href=&quot;\nhttp://ultraimg.com/images/Dm7Rl.png&quot; rel=&quot;nofollow&quot; target=&quot;_NEW&quot;&gt;\nhttp://ultraimg.com/images/Dm7Rl.png&lt;/a&gt; &lt;a href=&quot;\nhttp://ultraimg.com/images/YuAOI.png&quot; rel=&quot;nofollow&quot; target=&quot;_NEW&quot;&gt;\nhttp://ultraimg.com/images/YuAOI.png&lt;/a&gt;","torrent":{"xt":"urn:btih:52c172e41a56b6b6effb96c4be392586ad653bff","amp;dn":"The+Internship+2013+CAM+READNFO+XViD+-+JUSTiCE","amp;tr":["udp%3A%2F%2Ftracker.openbittorrent.com%3A80","udp%3A%2F%2Fopen.demonii.com%3A1337","udp%3A%2F%2Ftracker.coppersurfer.tk%3A6969","udp%3A%2F%2Fexodus.desync.com%3A6969"],"infoHash":"52c172e41a56b6b6effb96c4be392586ad653bff","infoHashBuffer":{"type":"Buffer","data":[82,193,114,228,26,86,182,182,239,251,150,196,190,57,37,134,173,101,59,255]},"announce":[],"urlList":[]}}